<svg width="68" height="29" viewBox="0 0 68 29" fill="none" xmlns="http://www.w3.org/2000/svg">
<path fill-rule="evenodd" clip-rule="evenodd" d="M13.0121 4.24844C12.2245 5.18684 10.9644 5.92698 9.70421 5.82124C9.5467 4.55243 10.1636 3.20431 10.8856 2.37166C11.6732 1.40683 13.0515 0.719554 14.1672 0.666687C14.2985 1.98837 13.7865 3.28362 13.0121 4.24844ZM14.154 6.07235C13.0438 6.00802 12.0308 6.40852 11.2126 6.73202C10.6861 6.94019 10.2402 7.11648 9.90101 7.11648C9.52034 7.11648 9.05605 6.93077 8.53477 6.72226L8.53476 6.72225L8.53476 6.72225C7.8517 6.44903 7.07077 6.13666 6.25185 6.15165C4.37476 6.17809 2.62894 7.24865 1.67071 8.95362C-0.298265 12.3635 1.15877 17.4124 3.06211 20.1879C3.99409 21.5624 5.10984 23.0692 6.58001 23.0163C7.22679 22.9917 7.69204 22.7929 8.17354 22.5872L8.17355 22.5872C8.72789 22.3504 9.30375 22.1043 10.2029 22.1043C11.0709 22.1043 11.6216 22.344 12.1502 22.574C12.6528 22.7927 13.1355 23.0027 13.8521 22.9899C15.3747 22.9634 16.333 21.6153 17.265 20.2408C18.2707 18.7655 18.7127 17.3257 18.7798 17.1072L18.7876 17.0819C18.786 17.0803 18.7736 17.0746 18.7517 17.0645C18.4155 16.9095 15.8457 15.725 15.821 12.5486C15.7963 9.88245 17.8593 8.53163 18.1841 8.31899L18.1841 8.31895C18.2039 8.30603 18.2172 8.29732 18.2232 8.29278C16.9105 6.33669 14.8628 6.12522 14.154 6.07235ZM24.6947 22.8445V2.23949H32.3736C36.3378 2.23949 39.1075 4.98858 39.1075 9.00649C39.1075 13.0244 36.2853 15.7999 32.2686 15.7999H27.8713V22.8445H24.6947ZM27.871 4.93571H31.5333C34.2898 4.93571 35.865 6.41599 35.865 9.01969C35.865 11.6234 34.2898 13.1169 31.5201 13.1169H27.871V4.93571ZM49.5957 20.3729C48.7556 21.9854 46.9048 23.0031 44.9096 23.0031C41.9561 23.0031 39.8952 21.232 39.8952 18.5622C39.8952 15.9189 41.8905 14.3989 45.579 14.1743L49.5432 13.9364V12.7997C49.5432 11.1212 48.4537 10.2092 46.511 10.2092C44.9096 10.2092 43.7413 11.0419 43.505 12.3107H40.6435C40.7353 9.6409 43.2294 7.69803 46.6029 7.69803C50.2389 7.69803 52.6017 9.61447 52.6017 12.5882V22.8445H49.6614V20.3729H49.5957ZM45.7626 20.558C44.0693 20.558 42.9929 19.7385 42.9929 18.4829C42.9929 17.1877 44.0299 16.4343 46.012 16.3154L49.543 16.0907V17.2538C49.543 19.1834 47.9153 20.558 45.7626 20.558ZM62.3545 23.6507C61.0813 27.2589 59.6242 28.4484 56.5264 28.4484C56.2901 28.4484 55.5025 28.422 55.3187 28.3691V25.8976C55.5156 25.924 56.0013 25.9504 56.2507 25.9504C57.6552 25.9504 58.4428 25.3557 58.9285 23.8093L59.2173 22.8974L53.8354 7.8963H57.1564L60.8975 20.069H60.9631L64.7042 7.8963H67.9333L62.3545 23.6507Z" fill="black"/>
</svg>
