<svg width="43" height="38" viewBox="0 0 43 38" fill="none" xmlns="http://www.w3.org/2000/svg">
<path fill-rule="evenodd" clip-rule="evenodd" d="M0.843781 0.21582H22.419C37.0799 0.21582 42.7138 8.46368 42.7138 18.889C42.7138 31.3597 34.8392 37.6281 22.419 37.6281H0.843781V0.21582ZM2.8923 2.45924V35.5167H22.4188C34.1988 35.5167 40.6009 29.8421 40.6009 18.955C40.6009 7.73787 33.6866 2.45924 22.4188 2.45924H2.8923ZM8.65437 19.5487C10.8112 19.5487 12.5597 17.7467 12.5597 15.5238C12.5597 13.3009 10.8112 11.4988 8.65437 11.4988C6.49753 11.4988 4.74906 13.3009 4.74906 15.5238C4.74906 17.7467 6.49753 19.5487 8.65437 19.5487ZM5.5175 21.2643H11.7916V32.7454H5.5175V21.2643Z" fill="black"/>
<path fill-rule="evenodd" clip-rule="evenodd" d="M33.4947 11.8288H35.2873V17.3713H37.9122C37.208 7.27595 29.4614 5.03253 22.419 5.03253H14.9285V11.8288H16.0169C18.0655 11.8288 19.282 13.2144 19.282 15.5238C19.282 17.8332 18.0655 19.2188 16.0809 19.2188H14.9285V32.7453H22.419C33.8788 32.7453 37.7842 27.2688 37.9762 19.2188H33.4947V11.8288ZM24.8518 17.3713V19.2188H20.3703V11.8288H24.7238V13.6763H22.1629V14.5341H24.5957V16.3816H22.2269V17.3713H24.8518ZM25.6199 19.2188L27.7966 11.8288H30.3575L32.5342 19.2188H30.6776L30.2935 17.8332H27.9247L27.5405 19.2188H25.6199ZM28.457 15.9197H28.437V15.9857L28.457 15.9197ZM28.457 15.9197H29.7174L29.1412 13.8742H29.0772L28.457 15.9197ZM14.9285 17.3713V13.6763H16.0169C16.7211 13.6763 17.4894 13.8742 17.4894 15.5238C17.4894 17.1734 16.7851 17.3713 16.0169 17.3713H14.9285Z" fill="#D50072"/>
</svg>
