<svg width="61" height="37" viewBox="0 0 61 37" fill="none" xmlns="http://www.w3.org/2000/svg">
<path fill-rule="evenodd" clip-rule="evenodd" d="M30.6106 31.8785C27.4531 34.5399 23.3574 36.1466 18.8818 36.1466C8.89552 36.1466 0.800003 28.1474 0.800003 18.2799C0.800003 8.41245 8.89552 0.413269 18.8818 0.413269C23.3574 0.413269 27.4531 2.01993 30.6106 4.68138C33.7681 2.01993 37.8638 0.413269 42.3394 0.413269C52.3257 0.413269 60.4212 8.41245 60.4212 18.2799C60.4212 28.1474 52.3257 36.1466 42.3394 36.1466C37.8638 36.1466 33.7681 34.5399 30.6106 31.8785Z" fill="#ED0006"/>
<path fill-rule="evenodd" clip-rule="evenodd" d="M30.6106 31.8785C34.4984 28.6014 36.9637 23.7251 36.9637 18.2799C36.9637 12.8347 34.4984 7.95845 30.6106 4.68138C33.7681 2.01993 37.8638 0.413269 42.3394 0.413269C52.3257 0.413269 60.4212 8.41245 60.4212 18.2799C60.4212 28.1474 52.3257 36.1466 42.3394 36.1466C37.8638 36.1466 33.7681 34.5399 30.6106 31.8785Z" fill="#F9A000"/>
<path fill-rule="evenodd" clip-rule="evenodd" d="M30.6107 31.8785C34.4985 28.6014 36.9637 23.7251 36.9637 18.28C36.9637 12.8348 34.4985 7.95853 30.6107 4.68146C26.7229 7.95853 24.2577 12.8348 24.2577 18.28C24.2577 23.7251 26.7229 28.6014 30.6107 31.8785Z" fill="#FF5E00"/>
</svg>
