<svg width="68" height="28" viewBox="0 0 68 28" fill="none" xmlns="http://www.w3.org/2000/svg">
<path d="M39.5867 8.26338C39.5867 12.253 36.7896 15.101 32.8809 15.101H29.1985C29.1578 15.101 29.1176 15.109 29.08 15.1246C29.0425 15.1402 29.0084 15.1631 28.9797 15.1919C28.951 15.2207 28.9283 15.2549 28.9129 15.2925C28.8975 15.3301 28.8897 15.3704 28.8899 15.4111V20.6546C28.8899 20.7366 28.8574 20.8153 28.7996 20.8734C28.7417 20.9315 28.6632 20.9644 28.5812 20.9648H26.0044C25.9431 20.9645 25.8833 20.9461 25.8324 20.912C25.7815 20.8779 25.7418 20.8296 25.7183 20.773C25.7027 20.736 25.6946 20.6963 25.6943 20.6561V1.73441C25.6941 1.69376 25.7019 1.65347 25.7173 1.61585C25.7328 1.57823 25.7555 1.54403 25.7841 1.51522C25.8128 1.4864 25.8469 1.46353 25.8844 1.44793C25.922 1.43233 25.9622 1.42429 26.0029 1.42429H32.8974C36.7896 1.4198 39.5867 4.2678 39.5867 8.26338ZM36.3731 8.26338C36.3731 5.9697 34.8091 4.29327 32.6877 4.29327H29.1985C29.1578 4.29326 29.1176 4.3013 29.08 4.3169C29.0425 4.3325 29.0084 4.35537 28.9797 4.38419C28.951 4.413 28.9283 4.4472 28.9129 4.48482C28.8975 4.52244 28.8897 4.56273 28.8899 4.60338V11.9054C28.8899 11.9873 28.9224 12.0658 28.9802 12.1236C29.0381 12.1815 29.1166 12.214 29.1985 12.214H32.6877C34.8091 12.229 36.3731 10.5511 36.3731 8.26338ZM40.3508 17.3347C40.324 16.7228 40.4506 16.114 40.7191 15.5635C40.9875 15.013 41.3893 14.5383 41.8879 14.1826C42.8931 13.426 44.4647 13.035 46.7719 12.9541L49.2288 12.8672V12.1421C49.2288 10.6889 48.255 10.0747 46.691 10.0747C45.1269 10.0747 44.1351 10.629 43.9074 11.5354C43.8888 11.5991 43.8496 11.6549 43.7959 11.6939C43.7422 11.733 43.6771 11.7531 43.6107 11.7511H41.1837C41.139 11.7523 41.0946 11.7437 41.0537 11.7258C41.0127 11.7079 40.9762 11.6812 40.9467 11.6476C40.9172 11.6139 40.8955 11.5742 40.8832 11.5313C40.8708 11.4883 40.868 11.4432 40.8751 11.399C41.2347 9.25067 43.022 7.61768 46.8018 7.61768C50.8229 7.61768 52.2746 9.49037 52.2746 13.065V20.6546C52.2738 20.7374 52.2402 20.8165 52.1813 20.8746C52.1223 20.9328 52.0428 20.9652 51.96 20.9648H49.5135C49.4316 20.9645 49.3531 20.9323 49.2948 20.8749C49.2661 20.8461 49.2434 20.812 49.228 20.7745C49.2126 20.7369 49.2047 20.6967 49.2049 20.6561V20.0883C49.2057 20.0414 49.1924 19.9953 49.1666 19.9561C49.1407 19.917 49.1036 19.8865 49.0602 19.8688C49.0167 19.8512 48.9689 19.8471 48.923 19.8571C48.8772 19.8671 48.8355 19.8908 48.8034 19.925C48.0693 20.7236 46.8842 21.3003 44.9861 21.3003C42.1935 21.3003 40.3508 19.8471 40.3508 17.3347ZM49.2288 15.6898V15.101L46.0467 15.2688C44.3703 15.3542 43.395 16.0508 43.395 17.2239C43.395 18.2846 44.2894 18.8718 45.852 18.8718C47.9749 18.8718 49.2288 17.7257 49.2288 15.6898ZM54.7316 26.6997V24.5004C54.732 24.4543 54.7426 24.4088 54.7626 24.3673C54.7826 24.3257 54.8115 24.289 54.8473 24.2599C54.883 24.2307 54.9247 24.2098 54.9694 24.1985C55.0142 24.1873 55.0608 24.186 55.1061 24.1948C55.4806 24.2652 55.8627 24.3012 56.2447 24.3027C56.9015 24.3346 57.55 24.1453 58.0864 23.765C58.6229 23.3848 59.0162 22.8355 59.2036 22.2052L59.3624 21.6989C59.3854 21.6308 59.3854 21.5571 59.3624 21.4891L54.2641 8.39522C54.2457 8.34775 54.2391 8.29652 54.2448 8.24592C54.2505 8.19533 54.2685 8.14688 54.2971 8.10474C54.3256 8.0626 54.364 8.02803 54.4089 8.00399C54.4538 7.97996 54.5039 7.96717 54.5548 7.96675H57.0267C57.0899 7.9674 57.1514 7.98703 57.2032 8.0231C57.2551 8.05917 57.2948 8.11001 57.3174 8.169L60.7796 17.4036C60.8013 17.465 60.8415 17.5181 60.8946 17.5557C60.9477 17.5933 61.0112 17.6134 61.0763 17.6134C61.1413 17.6134 61.2048 17.5933 61.2579 17.5557C61.311 17.5181 61.3512 17.465 61.3729 17.4036L64.3797 8.19447C64.4005 8.13152 64.4407 8.07677 64.4945 8.03802C64.5483 7.99928 64.613 7.97853 64.6793 7.97873H67.2367C67.2879 7.97904 67.3383 7.99174 67.3836 8.01575C67.4288 8.03976 67.4676 8.07436 67.4966 8.1166C67.5256 8.15883 67.5439 8.20746 67.5501 8.25833C67.5562 8.30919 67.5499 8.36078 67.5318 8.4087L62.0785 22.9498C60.8231 26.3297 58.6702 27.1941 56.3001 27.1941C55.8507 27.2061 55.4012 27.1522 54.9668 27.0338C54.8945 27.0147 54.8313 26.9707 54.7883 26.9096C54.7453 26.8485 54.7252 26.7742 54.7316 26.6997ZM9.13515 0.333636C5.88727 0.310496 2.75401 1.53292 0.379919 3.74943C0.278393 3.84242 0.2151 3.96985 0.202361 4.10693C0.189622 4.24401 0.22835 4.38092 0.311004 4.49102L1.7807 6.49855C1.82834 6.56539 1.89005 6.62098 1.96149 6.66141C2.03293 6.70183 2.11236 6.72611 2.19419 6.73254C2.27602 6.73896 2.35827 6.72738 2.43514 6.6986C2.51201 6.66983 2.58165 6.62455 2.63914 6.56597C3.4928 5.71252 4.50801 5.03779 5.62543 4.5812C6.74286 4.12461 7.94008 3.89532 9.14713 3.90674C14.1869 3.90674 16.8192 7.70008 16.8192 11.4455C16.8192 15.5175 14.0536 18.3819 10.079 18.4389C7.00777 18.4389 4.69311 16.4029 4.69311 13.7137C4.69631 13.0343 4.85023 12.3641 5.14375 11.7514C5.43728 11.1387 5.86311 10.5988 6.39053 10.1705C6.50203 10.0774 6.5725 9.94421 6.58679 9.79963C6.60108 9.65506 6.55804 9.51065 6.46693 9.39749L4.92233 7.44689C4.87562 7.3879 4.81757 7.33886 4.75159 7.30268C4.68562 7.2665 4.61307 7.2439 4.53822 7.23622C4.46337 7.22854 4.38773 7.23593 4.31579 7.25796C4.24384 7.27999 4.17704 7.31622 4.11932 7.36449C3.17071 8.12876 2.40521 9.09568 1.87895 10.1943C1.3527 11.293 1.07905 12.4955 1.07806 13.7137C1.07806 18.343 5.01222 21.9745 10.052 22.0045H10.1194C16.1031 21.9266 20.4298 17.495 20.4298 11.438C20.4298 6.05959 16.4686 0.333636 9.13665 0.333636H9.13515Z" fill="white"/>
</svg>
