<svg width="39" height="47" viewBox="0 0 39 47" fill="none" xmlns="http://www.w3.org/2000/svg">
<path fill-rule="evenodd" clip-rule="evenodd" d="M26.7575 17.1616L29.2637 4.315C29.5652 2.87379 28.736 1.4215 27.3467 1.00022C25.7959 0.60112 24.2343 1.53236 23.8359 3.10661L21.5651 11.11L19.775 3.22856C19.635 2.49687 19.2042 1.84278 18.5903 1.4215C17.9765 1.00023 17.2118 0.856105 16.4903 1.01131C15.0687 1.32173 14.1425 3.029 14.4979 4.58108L15.5541 13.5087C14.6366 12.5672 13.565 12.2771 12.3232 13.0177L12.1617 13.1286C11.03 13.9219 10.7997 15.5431 11.5269 17.0197C10.925 17.0546 10.3365 17.313 9.88911 17.7848L9.78141 17.9067C8.73677 19.0153 8.94139 20.8889 10.2445 22.2303L11.3031 23.3165C11.4222 28.3369 15.3893 31.8531 20.0667 31.8531C20.1221 31.8531 20.1755 31.8453 20.2261 31.8307C26.5619 31.7655 29.3465 27.8809 29.8237 21.9864C29.9744 20.1239 29.6406 18.849 28.9406 18.0841C28.5529 17.6628 28.1436 17.4633 27.8313 17.4189L26.7575 17.1616ZM25.6234 16.8899L28.1221 4.07111C28.2944 3.22855 27.8098 2.39709 27.0344 2.15319C26.1298 1.92038 25.2036 2.48578 24.9559 3.42811L22.0589 13.6496C21.9727 13.9711 21.6497 14.1485 21.3373 14.0598C21.0893 13.9894 20.9296 13.7651 20.9175 13.5147L18.6334 3.47245C18.5473 3.04009 18.2996 2.66316 17.9442 2.41926C17.5888 2.17537 17.1472 2.09776 16.7272 2.18645C15.9734 2.35274 15.4133 3.39485 15.6395 4.32609L15.6503 4.39261L16.9556 15.47L17.7767 16.7314C18.1352 16.219 18.6522 15.8997 19.2696 15.756C19.7865 15.6451 20.3142 15.6562 20.8204 15.7449C20.9466 15.7634 21.0426 15.7898 21.0958 15.8044C21.1062 15.8072 21.1149 15.8096 21.1219 15.8114L25.6234 16.8899ZM17.2605 18.0926L15.9749 16.1176C15.9312 16.0699 15.895 16.0148 15.8687 15.9544L15.2633 15.0243C14.5202 13.9046 13.7986 13.5166 12.9371 14.0265L12.8186 14.1152C12.1509 14.5919 12.0647 15.7227 12.754 16.8092L15.2956 20.7004C15.7479 21.3878 16.6525 21.5652 17.3202 21.0996L17.4495 21.0219C17.628 20.9018 17.7759 20.7365 17.882 20.5462C17.2437 19.8734 17.0857 19.0413 17.2605 18.0926ZM19.0577 20.0311C18.9912 19.9266 18.892 19.8431 18.7698 19.7967C18.2842 19.3158 18.265 18.7153 18.4942 17.9289C18.6665 17.3524 19.0003 17.0531 19.528 16.9311C19.8727 16.8535 20.2496 16.8646 20.6158 16.9311C20.6569 16.9396 20.6933 16.9464 20.7244 16.9523C20.7748 16.9618 20.8112 16.9686 20.8312 16.9755L27.6159 18.6051L27.7451 18.6495C27.8528 18.6938 27.9713 18.7825 28.0898 18.9045C28.5421 19.4033 28.8006 20.3457 28.6713 21.8977C28.2298 27.33 25.7743 30.7002 19.9373 30.6448C19.9045 30.6448 19.8725 30.6475 19.8412 30.6527C16.3034 30.5556 13.3108 28.1778 12.6157 24.6631L13.4861 25.5562C14.5307 26.5872 16.1785 26.5651 17.1908 25.5008L17.3093 25.3788C18.1127 24.5158 18.2505 23.2446 17.7283 22.239C17.8055 22.1962 17.8814 22.149 17.9556 22.0973L18.0849 22.0086C18.3776 21.8035 18.6234 21.539 18.8121 21.2345C19.2052 21.4455 19.678 21.6304 20.2388 21.7869L21.865 22.1749C20.6588 22.8733 19.905 24.1704 19.8188 26.1548C19.7973 26.4874 20.045 26.7646 20.3681 26.7868C20.6911 26.7978 20.9604 26.554 20.9819 26.2214C21.0681 24.4254 21.7466 23.4609 22.8343 23.0396C23.4158 22.8179 24.0512 22.7736 24.6112 22.829L24.7512 22.8512C25.4943 22.9953 25.7313 21.8534 24.9882 21.676L20.5188 20.645C19.8738 20.4636 19.3971 20.2621 19.0577 20.0311ZM10.7291 18.6273C11.1761 18.1458 11.9041 18.0877 12.4287 18.4632L14.3263 21.3767C14.8468 22.1593 15.6897 22.5742 16.5419 22.5587C17.0067 23.1394 16.9818 23.9983 16.4585 24.5474L16.3508 24.6693C15.7908 25.2569 14.8754 25.268 14.3046 24.6915L11.0737 21.3989C10.1799 20.4787 10.0614 19.3479 10.6214 18.7493L10.7291 18.6273ZM6.42135 43.1057C6.42135 44.9571 5.02132 46.2209 3.19052 46.2209C1.90895 46.2209 0.810465 45.6222 0.131989 44.6688L1.39202 43.3717C1.76895 43.8706 2.39358 44.4138 3.21205 44.4138C3.97669 44.4138 4.50439 43.9482 4.50439 43.1944C4.50439 42.3962 3.87976 42.1966 2.89974 41.9084C1.10124 41.3651 0.368917 40.4006 0.368917 39.1479C0.368917 37.5737 1.53202 36.2211 3.36283 36.2211C4.51516 36.2211 5.58134 36.7754 6.05519 37.8508L4.5367 38.8375C4.24592 38.3497 3.84745 38.0282 3.30898 38.0282C2.67358 38.0282 2.27511 38.4716 2.27511 39.037C2.27511 39.7133 2.85666 39.9239 3.78284 40.2011C5.23671 40.6445 6.42135 41.3873 6.42135 43.1057ZM7.07791 42.6844C7.07791 44.6245 8.65025 46.2209 10.5888 46.2209C12.5273 46.2209 14.0996 44.6245 14.0996 42.6844C14.0996 40.7443 12.5273 39.1479 10.5888 39.1479C8.65025 39.1479 7.07791 40.7443 7.07791 42.6844ZM10.5883 44.4471C11.5253 44.4471 12.2684 43.6822 12.2684 42.6844C12.2684 41.6867 11.5253 40.9217 10.5883 40.9217C9.64061 40.9217 8.90828 41.6867 8.90828 42.6844C8.90828 43.6933 9.65138 44.4471 10.5883 44.4471ZM18.6335 36.3431V38.1169C17.6104 38.0726 16.8673 38.6047 16.8673 39.7799V40.5005C17.2766 40.057 17.8581 39.8353 18.5797 39.8353V41.6313C17.5673 41.6534 16.8673 42.3186 16.8673 43.2498V46.0436H15.0365V39.669C15.0365 37.873 16.135 36.3431 18.3643 36.3431H18.6335ZM22.629 46.2209C20.6905 46.2209 19.1181 44.6245 19.1181 42.6844C19.1181 40.7443 20.6905 39.1479 22.629 39.1479C24.5675 39.1479 26.1398 40.7443 26.1398 42.6844C26.1398 44.6245 24.5675 46.2209 22.629 46.2209ZM24.3089 42.6844C24.3089 43.6822 23.5766 44.4471 22.6289 44.4471C21.692 44.4471 20.9489 43.6933 20.9489 42.6844C20.9489 41.6867 21.692 40.9217 22.6289 40.9217C23.5658 40.9217 24.3089 41.6867 24.3089 42.6844ZM28.9076 40.1013V39.3364H27.1306V46.0435H28.9614V42.9837C28.9614 41.8751 29.5968 41.2543 30.6953 41.2543V39.2366C29.866 39.2033 29.2737 39.4916 28.9076 40.1013ZM33.5817 40.9772V42.6179C33.5817 43.7931 34.3248 44.3141 35.3479 44.2809V46.0547H35.0786C32.8386 46.0547 31.7509 44.5248 31.7509 42.7288V37.1857H33.5817V38.2389C33.5817 39.1479 34.3032 39.8353 35.294 39.8575V41.6423C34.5617 41.6423 33.9909 41.4206 33.5817 40.9772ZM37.534 46.1544C38.2018 46.1544 38.7618 45.5891 38.7618 44.8906C38.7618 44.2033 38.2125 43.6268 37.534 43.6268C36.8556 43.6268 36.3063 44.1922 36.3063 44.8906C36.3063 45.5891 36.8556 46.1544 37.534 46.1544Z" fill="white"/>
</svg>
