<svg width="65" height="22" viewBox="0 0 65 22" fill="none" xmlns="http://www.w3.org/2000/svg">
<path fill-rule="evenodd" clip-rule="evenodd" d="M16.6674 21.2886H11.1747L7.0559 5.11298C6.8604 4.3689 6.44531 3.71109 5.83472 3.40105C4.31092 2.62193 2.63179 2.00186 0.800018 1.68913V1.06637H9.64823C10.8694 1.06637 11.7853 2.00186 11.938 3.08832L14.075 14.7564L19.565 1.06637H24.905L16.6674 21.2886ZM27.958 21.2886H22.7706L27.0421 1.06637H32.2294L27.958 21.2886ZM38.9405 6.66855C39.0932 5.57938 40.0091 4.95662 41.0776 4.95662C42.7567 4.80026 44.5858 5.11299 46.1123 5.88942L47.0282 1.53547C45.5017 0.912705 43.8226 0.599976 42.2988 0.599976C37.2641 0.599976 33.6005 3.40106 33.6005 7.28861C33.6005 10.2461 36.1955 11.7989 38.0273 12.7344C40.0091 13.6672 40.7723 14.29 40.6197 15.2228C40.6197 16.622 39.0932 17.2447 37.5694 17.2447C35.7376 17.2447 33.9058 16.7783 32.2294 15.9992L31.3135 20.3559C33.1453 21.1323 35.127 21.445 36.9588 21.445C42.6041 21.5987 46.1123 18.8003 46.1123 14.6C46.1123 9.31057 38.9405 9.00054 38.9405 6.66855ZM64.2667 21.2886L60.1479 1.06637H55.7237C54.8079 1.06637 53.892 1.68913 53.5867 2.62193L45.9596 21.2886H51.2996L52.3655 18.3339H58.9267L59.5373 21.2886H64.2667ZM56.487 6.5122L58.0108 14.1336H53.7394L56.487 6.5122Z" fill="#172B85"/>
</svg>
